<?xml version="1.0" standalone="no"?><!DOCTYPE svg PUBLIC "-//W3C//DTD SVG 1.1//EN" "http://www.w3.org/Graphics/SVG/1.1/DTD/svg11.dtd"><svg t="1644814318155" class="icon" viewBox="0 0 1024 1024" version="1.1" xmlns="http://www.w3.org/2000/svg" p-id="3994" xmlns:xlink="http://www.w3.org/1999/xlink" width="200" height="200"><defs><style type="text/css"></style></defs><path d="M750.1 866.5H265.6c-33.3 0-60.4-25.1-60.4-56.1V205c0-30.9 27.1-56.1 60.4-56.1h484.5c33.3 0 60.4 25.1 60.4 56.1v114.8c0 12.4-10 22.4-22.4 22.4s-22.4-10-22.4-22.4V205c0-6-7.3-11.2-15.6-11.2H265.6c-8.3 0-15.6 5.2-15.6 11.2v605.4c0 6 7.3 11.2 15.6 11.2h484.5c8.3 0 15.6-5.2 15.6-11.2v-35.7c0-12.4 10-22.4 22.4-22.4s22.4 10 22.4 22.4v35.7c0 30.9-27.1 56.1-60.4 56.1z" fill="" p-id="3995"></path><path d="M667.9 379H354c-12.4 0-22.4-9.6-22.4-22s10-22 22.4-22h313.9c12.4 0 22.4 9.6 22.4 22s-10 22-22.4 22z" fill="" p-id="3996"></path><path d="M335.8 670.3c-5.7 0-11.5-2.2-15.9-6.6-8.8-8.8-8.8-22.9 0-31.7l132.4-132.4c8.8-8.8 22.9-8.8 31.7 0s8.8 22.9 0 31.7L351.6 663.8c-4.3 4.3-10.1 6.5-15.8 6.5z" fill="#181AC6" p-id="3997"></path><path d="M612.2 666.3c-15.9 0-30.9-6.2-42.1-17.4L452.9 531.7c-8.8-8.8-8.8-22.9 0-31.7s22.9-8.8 31.7 0l117.2 117.2c5.6 5.6 15.2 5.5 20.8 0l148.3-148.3c8.8-8.8 22.9-8.8 31.7 0s8.8 22.9 0 31.7L654.3 648.9c-11.3 11.2-26.2 17.4-42.1 17.4z" fill="#181AC6" p-id="3998"></path></svg>