<?xml version="1.0" standalone="no"?><!DOCTYPE svg PUBLIC "-//W3C//DTD SVG 1.1//EN" "http://www.w3.org/Graphics/SVG/1.1/DTD/svg11.dtd"><svg t="1644814204522" class="icon" viewBox="0 0 1024 1024" version="1.1" xmlns="http://www.w3.org/2000/svg" p-id="1397" xmlns:xlink="http://www.w3.org/1999/xlink" width="200" height="200"><defs><style type="text/css"></style></defs><path d="M440 171.2c19.2-38.4 80-38.4 104 0-1.6 59.2-8 129.6-16 203.2-17.6 33.6-52.8 32-73.6 0-6.4-62.4-14.4-126.4-14.4-203.2zM440 852.8c19.2 38.4 80 38.4 104 0-1.6-59.2-8-129.6-16-203.2-17.6-33.6-52.8-32-73.6 0-6.4 62.4-14.4 126.4-14.4 203.2zM219.2 731.2c-43.2 3.2-73.6-51.2-51.2-89.6 52.8-28.8 116.8-57.6 184-88 36.8-1.6 54.4 30.4 36.8 64-51.2 36.8-102.4 73.6-169.6 113.6zM817.6 385.6c24-36.8-6.4-88-51.2-89.6-51.2 30.4-108.8 70.4-168 115.2-20.8 32 0 62.4 36.8 64 56-27.2 115.2-52.8 182.4-89.6zM766.4 731.2c43.2 3.2 73.6-51.2 51.2-89.6-52.8-28.8-116.8-57.6-184-88-36.8-1.6-54.4 30.4-36.8 64 51.2 36.8 102.4 73.6 169.6 113.6zM168 384c-24-36.8 8-88 52.8-89.6 51.2 32 108.8 72 168 116.8 20.8 32 0 62.4-36.8 64-57.6-27.2-116.8-52.8-184-91.2z" fill="#E6B137" p-id="1398"></path></svg>